<svg height="512" viewBox="0 0 64 64" width="512" xmlns="http://www.w3.org/2000/svg"><g id="Spray"><path d="m47 9v6h-3-4-5v-6z" fill="#c6c5ca"/><path d="m40 15h4v6h-4z" fill="#898890"/><path d="m31 17v3h-6c-2.17-2.67.17-3.33-2-6s-3.83-1.33-6-4-.83-3.33-3-6h17z" fill="#c6c5ca"/><path d="m31 7h4v10h-4z" fill="#ffde55"/><path d="m25 20h-22v-16h11c2.17 2.67.83 3.33 3 6s3.83 1.33 6 4-.17 3.33 2 6z" fill="#57a4ff"/><path d="m27.84 50h9.16l13.33-3.04 3.53-1.04a2.4 2.4 0 0 1 .69-.1 2.451 2.451 0 0 1 .82 4.76l-.79.24h-.03a2.4 2.4 0 0 0 -.69.1l-13.86 4.08h-8l-9-5z" fill="#ffc477"/><path d="m57 53.27a2.448 2.448 0 0 1 -1.63 2.31l-15.37 5.42h-15l-12-4h-4v-13l5-2h6l15 3 2 2v3h-14l9 5h8l13.86-4.08a2.4 2.4 0 0 1 .69-.1h.03a2.454 2.454 0 0 1 2.42 2.45z" fill="#ffdaaa"/><path d="m51 45.27a2.46 2.46 0 0 1 -.67 1.69l-13.33 3.04v-3l-.68-.68 5.13-1.51 6.41-1.89a2.4 2.4 0 0 1 .69-.1 2.454 2.454 0 0 1 2.45 2.45z" fill="#ffc477"/><path d="m42 43.27a2.416 2.416 0 0 1 -.55 1.54l-5.13 1.51-1.32-1.32-5.95-1.19 9.81-2.89a2.4 2.4 0 0 1 .69-.1 2.454 2.454 0 0 1 2.45 2.45z" fill="#ffc477"/><path d="m9 41v18l-6 1v-20z" fill="#00d7df"/><path d="m58 48.27a3.448 3.448 0 0 0 -4.42-3.31l-1.6.47a.875.875 0 0 0 .02-.16 3.448 3.448 0 0 0 -4.42-3.31l-4.58 1.35v-.04a3.448 3.448 0 0 0 -4.42-3.31l-9.58 2.82-8.8-1.76a1.355 1.355 0 0 0 -.2-.02h-6a.937.937 0 0 0 -.37.07l-3.63 1.45v-1.52a1 1 0 0 0 -.84-.99l-6-1a1.05 1.05 0 0 0 -.81.23 1.011 1.011 0 0 0 -.35.76v20a1.011 1.011 0 0 0 .35.76.987.987 0 0 0 .65.24.86.86 0 0 0 .16-.01l6-1a1 1 0 0 0 .84-.99v-1h2.84l11.84 3.95a1.185 1.185 0 0 0 .32.05h15a.919.919 0 0 0 .33-.06l15.37-5.42a3.449 3.449 0 0 0 2.3-3.25 3.407 3.407 0 0 0 -1.1-2.49 3.456 3.456 0 0 0 1.1-2.51zm-50 9.88-4 .67v-17.64l4 .67zm40.15-14.27a1.29 1.29 0 0 1 .4-.06 1.418 1.418 0 0 1 1.18 2.25l-11.73 2.68v-1.75c0-.04-.02-.08-.02-.13zm-9-2a1.29 1.29 0 0 1 .4-.06 1.451 1.451 0 0 1 1.45 1.45 1.415 1.415 0 0 1 -.2.69l-4.19 1.23-.9-.9a1.014 1.014 0 0 0 -.51-.27l-1.98-.4zm15.89 12.75-15.21 5.37h-14.67l-11.84-3.95a1.185 1.185 0 0 0 -.32-.05h-3v-11.32l4.19-1.68h5.71l14.61 2.92 1.49 1.49v1.59h-13a1 1 0 0 0 -.49 1.87l9 5a.947.947 0 0 0 .49.13h8a.863.863 0 0 0 .28-.04l13.87-4.08a1.446 1.446 0 0 1 .89 2.75zm.04-5.01-.67.21a3.341 3.341 0 0 0 -.83.13l-13.72 4.04h-7.6l-4.95-2.75.7-.25h8.99a1.435 1.435 0 0 0 .22-.04v.02l13.39-3.06 3.54-1.04a1.29 1.29 0 0 1 .4-.06 1.45 1.45 0 0 1 .53 2.8z"/><path d="m47 8h-11v-1a1 1 0 0 0 -1-1h-3v-2a1 1 0 0 0 -1-1h-28a1 1 0 0 0 -1 1v16a1 1 0 0 0 1 1h28a1 1 0 0 0 1-1v-2h3a1 1 0 0 0 1-1v-1h3v5a1 1 0 0 0 1 1h4a1 1 0 0 0 1-1v-5h2a1 1 0 0 0 1-1v-6a1 1 0 0 0 -1-1zm-43 11v-14h9.51a5.435 5.435 0 0 1 1.02 2.24 7.556 7.556 0 0 0 1.69 3.39 6.635 6.635 0 0 0 3.45 2.31 4.738 4.738 0 0 1 2.55 1.69 2.737 2.737 0 0 1 .78 2.32 4.635 4.635 0 0 0 .25 2.05zm26 0h-4.5a2.61 2.61 0 0 1 -.5-1.95 4.708 4.708 0 0 0 -1.22-3.68 6.635 6.635 0 0 0 -3.45-2.31 4.738 4.738 0 0 1 -2.55-1.69 5.615 5.615 0 0 1 -1.31-2.61 7.974 7.974 0 0 0 -.62-1.76h14.15zm4-3h-2v-8h2zm9 4h-2v-4h2zm3-6h-10v-4h10z"/><path d="m41 24h2v2h-2z"/><path d="m41 28h2v4h-2z"/><path d="m41 34h2v4h-2z"/><path d="m37.172 23.828h2v2h-2z" transform="matrix(.707 -.707 .707 .707 -6.376 34.264)"/><path d="m32.636 27.364h4v2h-4z" transform="matrix(.707 -.707 .707 .707 -9.912 32.799)"/><path d="m28.394 31.607h4v2h-4z" transform="matrix(.707 -.707 .707 .707 -14.154 31.042)"/><path d="m44.828 23.828h2v2h-2z" transform="matrix(.707 -.707 .707 .707 -4.136 39.669)"/><path d="m48.364 26.364h2v4h-2z" transform="matrix(.707 -.707 .707 .707 -5.598 43.213)"/><path d="m52.607 30.607h2v4h-2z" transform="matrix(.707 -.707 .707 .707 -7.355 47.456)"/></g></svg>