<svg id="Capa_1" enable-background="new 0 0 512 512" height="512" viewBox="0 0 512 512" width="512" xmlns="http://www.w3.org/2000/svg"><g id="XMLID_2206_"><g id="XMLID_1680_"><path id="XMLID_1338_" d="m131.646 435h75.958c10.125 0 18.333-8.208 18.333-18.333v-217.198c0-15.723-12.746-28.469-28.469-28.469h-159c-15.722 0-28.468 12.746-28.468 28.469v217.198c0 10.125 8.208 18.333 18.333 18.333h14.589z" fill="#e2e9ee"/><path id="XMLID_1392_" d="m10 199.469c0-15.723 12.746-28.469 28.469-28.469h159c15.723 0 28.469 12.746 28.469 28.469v42.531h-215.938z" fill="#ff7b79"/><circle id="XMLID_1285_" cx="87.891" cy="431" fill="#c5d3de" r="44"/><path id="XMLID_1284_" d="m253.969 419h-28.031v-64h28.031c6.61 0 11.969 5.359 11.969 11.969v40.062c-.001 6.61-5.359 11.969-11.969 11.969z" fill="#98eaf9"/><g id="XMLID_1282_"><path id="XMLID_1283_" d="m406.938 37h-65c-22.091 0-40 17.909-40 40v47.615c0 5.362 4.347 9.708 9.709 9.708h20.583c5.362 0 9.708-4.347 9.708-9.708v-47.615h65z" fill="#98eaf9"/></g><path id="XMLID_1343_" d="m366.25 37h40.688v40h-40.688z" fill="#e2e9ee"/></g><g id="XMLID_441_"><path id="XMLID_442_" d="m87.89 421c-2.63 0-5.21 1.07-7.07 2.93s-2.93 4.44-2.93 7.07 1.07 5.21 2.93 7.07 4.44 2.93 7.07 2.93 5.21-1.07 7.07-2.93 2.93-4.44 2.93-7.07-1.07-5.21-2.93-7.07-4.44-2.93-7.07-2.93z"/><path id="XMLID_467_" d="m406.938 27h-65c-27.57 0-50 22.43-50 50v47.615c0 10.867 8.841 19.708 19.709 19.708h.291v190.677c0 21.121-15.674 38.644-36 41.565v-9.596c0-12.114-9.855-21.969-21.969-21.969h-18.031v-145.531c0-21.212-17.257-38.469-38.469-38.469h-23.802v-87h18c5.523 0 10-4.477 10-10s-4.477-10-10-10h-56c-5.523 0-10 4.477-10 10s4.477 10 10 10h18v87h-115.198c-21.212 0-38.469 17.257-38.469 38.469v217.198c0 15.623 12.71 28.333 28.333 28.333h7.409c6.183 23.009 27.215 40 52.149 40s45.965-16.991 52.149-40h42.601v30c0 5.523 4.477 10 10 10s10-4.477 10-10v-30h4.963c11.205 0 20.91-6.539 25.504-16h20.861c12.114 0 21.969-9.855 21.969-21.969v-10.327c31.382-3.028 56-29.542 56-61.705v-190.676h.292c10.867 0 19.708-8.841 19.708-19.708v-12.261c9.052 9.044 21.546 14.646 35.323 14.646 5.523 0 10-4.477 10-10s-4.477-10-10-10c-13.036 0-24.152-8.361-28.28-20h47.956c5.523 0 10-4.477 10-10v-40c.001-5.523-4.477-10-9.999-10zm-319.047 438c-18.747 0-34-15.252-34-34s15.253-34 34-34c18.748 0 34 15.252 34 34s-15.252 34-34 34zm119.713-40h-66.054c-2.995-26.961-25.912-48-53.659-48s-50.663 21.039-53.659 48h-5.899c-4.595 0-8.333-3.738-8.333-8.333v-164.667h52.844c5.523 0 10-4.477 10-10s-4.477-10-10-10h-52.844v-32.531c0-10.184 8.285-18.469 18.469-18.469h159c10.184 0 18.469 8.285 18.469 18.469v32.531h-53.093c-5.523 0-10 4.477-10 10s4.477 10 10 10h53.093v164.667c-.001 4.595-3.739 8.333-8.334 8.333zm48.333-17.969c0 1.085-.883 1.969-1.969 1.969h-18.031v-44h18.031c1.085 0 1.969.883 1.969 1.969zm76-330.031v47.323h-20v-47.323c0-16.542 13.458-30 30-30h14.313v20h-14.313c-5.522 0-10 4.477-10 10zm65.001-10h-20.688v-20h20.688z"/><path id="XMLID_472_" d="m447 47h55c5.523 0 10-4.477 10-10s-4.477-10-10-10h-55c-5.523 0-10 4.477-10 10s4.477 10 10 10z"/><path id="XMLID_473_" d="m502 67h-55c-5.523 0-10 4.477-10 10s4.477 10 10 10h55c5.523 0 10-4.477 10-10s-4.477-10-10-10z"/><path id="XMLID_474_" d="m117.84 232.12c-2.63 0-5.21 1.07-7.07 2.93s-2.92 4.44-2.92 7.07c0 2.64 1.06 5.21 2.92 7.08 1.86 1.86 4.44 2.93 7.07 2.93 2.64 0 5.21-1.07 7.07-2.93 1.87-1.86 2.93-4.44 2.93-7.08 0-2.63-1.06-5.21-2.93-7.07-1.86-1.86-4.44-2.93-7.07-2.93z"/></g></g></svg>